<?xml version="1.0" encoding="utf-8"?>
<!-- Generator: Adobe Illustrator 23.0.1, SVG Export Plug-In . SVG Version: 6.00 Build 0)  -->
<svg version="1.1" xmlns="http://www.w3.org/2000/svg" xmlns:xlink="http://www.w3.org/1999/xlink" x="0px" y="0px"
	 viewBox="0 0 2500 2500" style="enable-background:new 0 0 2500 2500;" xml:space="preserve">
<style type="text/css">
	.st0{fill:#FFFFFF;}
	.st1{fill:none;stroke:#000000;stroke-linecap:round;stroke-linejoin:round;stroke-miterlimit:10;}
</style>
<g id="Layer_2">
</g>
<g id="Layer_1">
	<rect y="10" class="st0" width="2500" height="2500"/>
</g>
<g id="Layer_3">
	<g>
		<g>
			<g>
				<path d="M1526.76,1754.85H328.27c-37.44,0-67.9-30.48-67.9-67.92V813.03c0-37.44,30.47-67.89,67.9-67.89h1198.49
					c37.44,0,67.9,30.45,67.9,67.89v309.67c0,8.42-6.81,15.22-15.22,15.22c-8.41,0-15.22-6.81-15.22-15.22V813.03
					c0-20.64-16.8-37.44-37.45-37.44H328.27c-20.65,0-37.45,16.8-37.45,37.44v873.91c0,20.67,16.8,37.47,37.45,37.47h1198.49
					c20.65,0,37.45-16.8,37.45-37.47v-309.67c0-8.41,6.81-15.22,15.22-15.22c8.41,0,15.22,6.81,15.22,15.22v309.67
					C1594.66,1724.38,1564.2,1754.85,1526.76,1754.85z"/>
			</g>
			<g>
				<path d="M1485.04,1687.86H369.99c-24.35,0-44.16-19.8-44.16-44.16V956.44c0-24.32,19.8-44.13,44.16-44.13h1115.05
					c24.52,0,44.46,19.8,44.46,44.13v166.25c0,8.42-6.81,15.22-15.22,15.22c-8.42,0-15.22-6.81-15.22-15.22V956.44
					c0-7.67-6.16-13.68-14.01-13.68H369.99c-7.69,0-13.71,6.01-13.71,13.68v687.26c0,7.7,6.02,13.71,13.71,13.71h1115.05
					c7.85,0,14.01-6.01,14.01-13.71v-266.43c0-8.41,6.81-15.22,15.22-15.22c8.41,0,15.22,6.81,15.22,15.22v266.43
					C1529.5,1668.06,1509.56,1687.86,1485.04,1687.86z"/>
			</g>
			<g>
				<g>
					<path d="M394.84,885.74c-25.74,0-46.69-20.93-46.69-46.69c0-25.75,20.95-46.68,46.69-46.68c25.75,0,46.7,20.93,46.7,46.68
						C441.54,864.8,420.59,885.74,394.84,885.74z M394.84,822.82c-8.95,0-16.24,7.28-16.24,16.23c0,8.95,7.29,16.24,16.24,16.24
						c8.97,0,16.25-7.29,16.25-16.24C411.09,830.1,403.8,822.82,394.84,822.82z"/>
				</g>
			</g>
			<g>
				<g>
					<path d="M515.3,885.74c-25.73,0-46.68-20.93-46.68-46.69c0-25.75,20.95-46.68,46.68-46.68c25.75,0,46.7,20.93,46.7,46.68
						C562,864.8,541.05,885.74,515.3,885.74z M515.3,822.82c-8.95,0-16.23,7.28-16.23,16.23c0,8.95,7.28,16.24,16.23,16.24
						c8.97,0,16.25-7.29,16.25-16.24C531.55,830.1,524.26,822.82,515.3,822.82z"/>
				</g>
			</g>
			<g>
				<g>
					<path d="M635.75,885.74c-25.74,0-46.69-20.93-46.69-46.69c0-25.75,20.95-46.68,46.69-46.68c25.75,0,46.7,20.93,46.7,46.68
						C682.46,864.8,661.51,885.74,635.75,885.74z M635.75,822.82c-8.95,0-16.24,7.28-16.24,16.23c0,8.95,7.29,16.24,16.24,16.24
						c8.97,0,16.25-7.29,16.25-16.24C652.01,830.1,644.72,822.82,635.75,822.82z"/>
				</g>
			</g>
		</g>
		<g>
			<g>
				<g>
					<g>
						<path d="M1844.96,1392.49h-489.94c-8.42,0-15.22-6.81-15.22-15.22V1122.7c0-8.42,6.81-15.22,15.22-15.22h489.94
							c8.42,0,15.22,6.81,15.22,15.22c0,8.42-6.81,15.22-15.22,15.22h-474.72v224.12h474.72c8.42,0,15.22,6.81,15.22,15.22
							C1860.18,1385.68,1853.38,1392.49,1844.96,1392.49z"/>
					</g>
					<g>
						<path d="M1860.93,1510.99c-5.06,0-10.13-1.25-14.75-3.72c-10.11-5.44-16.38-15.97-16.38-27.45V1020.2
							c0-11.48,6.29-22.01,16.42-27.45c10.13-5.41,22.34-4.85,31.92,1.49l347.51,229.8c8.76,5.8,13.99,15.49,13.99,25.96
							c0,10.5-5.22,20.19-13.94,25.99l-347.6,229.83C1872.9,1509.26,1866.92,1510.99,1860.93,1510.99z M1861.32,1019.64
							l-1.07,460.19c0,0.24,0,0.42,0.36,0.62l348.27-229.86L1861.32,1019.64z"/>
					</g>
				</g>
			</g>
		</g>
	</g>
	<g>
		<path d="M1606.96,1265.46H893.04c-8.54,0-15.46-6.92-15.46-15.46c0-8.55,6.92-15.46,15.46-15.46h713.91
			c8.54,0,15.46,6.92,15.46,15.46C1622.42,1258.54,1615.5,1265.46,1606.96,1265.46z"/>
	</g>
</g>
</svg>
